<svg width="16" height="16" viewBox="0 0 16 16" fill="none" xmlns="http://www.w3.org/2000/svg">
<path d="M16 6.27284V6.8183C16 7.27017 15.7015 7.63648 15.3333 7.63648H15.1111L14.3858 13.8679C14.2919 14.674 13.7294 15.2728 13.0658 15.2728H2.93417C2.27064 15.2728 1.70808 14.674 1.61422 13.8679L0.888889 7.63648H0.666667C0.298472 7.63648 0 7.27017 0 6.8183V6.27284C0 5.82097 0.298472 5.45466 0.666667 5.45466H2.53725L5.50336 0.449396C5.79211 -0.0378313 6.348 -0.145593 6.74506 0.208782C7.14208 0.563157 7.22986 1.24542 6.94111 1.73268L4.73547 5.45466H11.2645L9.05889 1.73265C8.77014 1.24542 8.85794 0.563123 9.25497 0.208748C9.65194 -0.145627 10.2079 -0.0378995 10.4967 0.449362L13.4628 5.45466H15.3333C15.7015 5.45466 16 5.82097 16 6.27284ZM8.66667 12.2728V8.45466C8.66667 8.00278 8.36819 7.63648 8 7.63648C7.63181 7.63648 7.33333 8.00278 7.33333 8.45466V12.2728C7.33333 12.7247 7.63181 13.091 8 13.091C8.36819 13.091 8.66667 12.7247 8.66667 12.2728ZM11.7778 12.2728V8.45466C11.7778 8.00278 11.4793 7.63648 11.1111 7.63648C10.7429 7.63648 10.4444 8.00278 10.4444 8.45466V12.2728C10.4444 12.7247 10.7429 13.091 11.1111 13.091C11.4793 13.091 11.7778 12.7247 11.7778 12.2728ZM5.55556 12.2728V8.45466C5.55556 8.00278 5.25708 7.63648 4.88889 7.63648C4.52069 7.63648 4.22222 8.00278 4.22222 8.45466V12.2728C4.22222 12.7247 4.52069 13.091 4.88889 13.091C5.25708 13.091 5.55556 12.7247 5.55556 12.2728Z" fill="white"/>
</svg>
